<svg width="158" height="199" viewBox="0 0 158 199" fill="none" xmlns="http://www.w3.org/2000/svg">
<g filter="url(#filter0_i_4_3555)">
<rect width="158" height="158" rx="50" fill="white" fill-opacity="0.05"/>
</g>
<rect x="1" y="1" width="156" height="156" rx="49" stroke="url(#paint0_linear_4_3555)" stroke-opacity="0.2" stroke-width="2"/>
<g filter="url(#filter1_f_4_3555)">
<path fill-rule="evenodd" clip-rule="evenodd" d="M111.98 158.301H49C49.637 141.459 63.4919 128 80.4902 128C97.4886 128 111.344 141.459 111.98 158.301Z" fill="#7F76FF" fill-opacity="0.31"/>
</g>
<g filter="url(#filter2_d_4_3555)">
<path d="M119 79C119 101.091 101.091 119 79 119C56.9086 119 39 101.091 39 79C39 56.9086 56.9086 39 79 39C101.091 39 119 56.9086 119 79Z" fill="url(#paint1_linear_4_3555)"/>
<path d="M98.2279 107.045C92.759 110.801 86.1363 113 79.0001 113C71.8638 113 65.2409 110.801 59.772 107.045C57.3566 105.385 56.3244 102.225 57.7287 99.6527C60.64 94.3209 66.6389 91 78.9999 91C91.3611 91 97.36 94.321 100.271 99.6529C101.676 102.225 100.643 105.386 98.2279 107.045Z" fill="#26243B"/>
<path d="M79.0002 79C85.6276 79 91.0002 73.6274 91.0002 67C91.0002 60.3726 85.6276 55 79.0002 55C72.3728 55 67.0002 60.3726 67.0002 67C67.0002 73.6274 72.3728 79 79.0002 79Z" fill="#26243B"/>
</g>
<defs>
<filter id="filter0_i_4_3555" x="0" y="0" width="158" height="163" filterUnits="userSpaceOnUse" color-interpolation-filters="sRGB">
<feFlood flood-opacity="0" result="BackgroundImageFix"/>
<feBlend mode="normal" in="SourceGraphic" in2="BackgroundImageFix" result="shape"/>
<feColorMatrix in="SourceAlpha" type="matrix" values="0 0 0 0 0 0 0 0 0 0 0 0 0 0 0 0 0 0 127 0" result="hardAlpha"/>
<feOffset dy="5"/>
<feGaussianBlur stdDeviation="7.5"/>
<feComposite in2="hardAlpha" operator="arithmetic" k2="-1" k3="1"/>
<feColorMatrix type="matrix" values="0 0 0 0 1 0 0 0 0 1 0 0 0 0 1 0 0 0 0.15 0"/>
<feBlend mode="normal" in2="shape" result="effect1_innerShadow_4_3555"/>
</filter>
<filter id="filter1_f_4_3555" x="9" y="88" width="142.98" height="110.301" filterUnits="userSpaceOnUse" color-interpolation-filters="sRGB">
<feFlood flood-opacity="0" result="BackgroundImageFix"/>
<feBlend mode="normal" in="SourceGraphic" in2="BackgroundImageFix" result="shape"/>
<feGaussianBlur stdDeviation="20" result="effect1_foregroundBlur_4_3555"/>
</filter>
<filter id="filter2_d_4_3555" x="35" y="39" width="88" height="88" filterUnits="userSpaceOnUse" color-interpolation-filters="sRGB">
<feFlood flood-opacity="0" result="BackgroundImageFix"/>
<feColorMatrix in="SourceAlpha" type="matrix" values="0 0 0 0 0 0 0 0 0 0 0 0 0 0 0 0 0 0 127 0" result="hardAlpha"/>
<feOffset dy="4"/>
<feGaussianBlur stdDeviation="2"/>
<feComposite in2="hardAlpha" operator="out"/>
<feColorMatrix type="matrix" values="0 0 0 0 0 0 0 0 0 0 0 0 0 0 0 0 0 0 0.25 0"/>
<feBlend mode="normal" in2="BackgroundImageFix" result="effect1_dropShadow_4_3555"/>
<feBlend mode="normal" in="SourceGraphic" in2="effect1_dropShadow_4_3555" result="shape"/>
</filter>
<linearGradient id="paint0_linear_4_3555" x1="79" y1="0" x2="79" y2="158" gradientUnits="userSpaceOnUse">
<stop stop-color="white"/>
<stop offset="1" stop-color="white" stop-opacity="0.3"/>
</linearGradient>
<linearGradient id="paint1_linear_4_3555" x1="51" y1="52" x2="108" y2="105" gradientUnits="userSpaceOnUse">
<stop stop-color="#00F0FF"/>
<stop offset="0.630208" stop-color="#7E74ED"/>
<stop offset="0.9999" stop-color="#C7C5DF"/>
<stop offset="1" stop-color="white"/>
</linearGradient>
</defs>
</svg>
